<svg 
 xmlns="http://www.w3.org/2000/svg"
 xmlns:xlink="http://www.w3.org/1999/xlink"
 width="1336.5px" height="968.5px">
<path fill-rule="evenodd"  stroke="rgb(255, 255, 255)" stroke-width="3px" stroke-linecap="butt" stroke-linejoin="miter" fill="rgba(64, 64, 64, 0.3)"
 d="M1192.500,542.500 C1121.366,632.320 1043.589,714.520 985.500,761.500 C873.930,851.733 751.423,913.287 686.500,932.500 C549.508,973.042 443.250,968.434 361.500,949.500 C230.919,919.256 149.758,860.169 107.500,812.500 C-5.016,685.578 -3.308,525.618 9.500,443.500 C15.481,405.150 42.168,330.832 77.500,261.500 C99.503,218.324 121.696,186.497 153.500,158.500 C167.029,146.590 182.444,135.510 197.500,126.500 C276.394,79.284 460.374,33.481 666.500,15.500 C780.221,5.580 889.482,1.064 1014.500,5.500 C1039.967,6.404 1126.768,20.440 1196.500,44.500 C1258.104,65.756 1292.843,87.360 1314.500,122.500 C1334.501,154.954 1343.636,240.341 1299.500,355.500 C1268.827,435.530 1220.049,507.714 1192.500,542.500 Z"/>
</svg>